<svg  xmlns="http://www.w3.org/2000/svg" version="1.1" xmlns:xlink="http://www.w3.org/1999/xlink" xmlns:svgjs="http://svgjs.dev/svgjs" width="250" height="78" viewBox="0 0 1000 623"><g transform="matrix(1,0,0,1,-0.6060606060606233,0.2522267206477409)"><svg viewBox="0 0 396 247" data-background-color="#ffffff" preserveAspectRatio="xMidYMid meet" height="623" width="1000" xmlns="http://www.w3.org/2000/svg" xmlns:xlink="http://www.w3.org/1999/xlink"><g id="tight-bounds" transform="matrix(1,0,0,1,0.2400000000000091,-0.09999999999999432)"><svg viewBox="0 0 395.52 247.2" height="247.2" width="395.52"><g><svg></svg></g><g><svg viewBox="0 0 395.52 247.2" height="247.2" width="395.52"><g><g><path xmlns="http://www.w3.org/2000/svg" d="M1 53.652h49.702c10.678 0 19.794 1.6 27.349 4.801 7.582 3.201 13.367 7.949 17.354 14.245 4.014 6.27 6.021 13.983 6.021 23.139 0 4.523-0.528 8.686-1.584 12.487l-25.795 0c1.647-3.293 2.47-7.01 2.47-11.149 0-7.162-2.059-12.881-6.179-17.157-4.145-4.25-10.691-6.375-19.636-6.375h-24.91l0 34.681-24.792 0zM106.975 192.289v1.259h-26.523l-27.868-53.519-26.792 0v53.519h-24.792l0-54.672h77.238zM151.089 53.652l0 54.672-24.714 0v-54.672zM151.089 193.548h-24.714v-54.672h24.714zM260.33 98.631c0-4.355-0.905-8.421-2.716-12.199-1.784-3.778-4.578-6.86-8.382-9.248-3.804-2.361-8.854-3.542-15.15-3.541h-28.609l0 34.681-24.792 0v-54.672h53.401c10.887 0 20.148 1.928 27.782 5.785 7.608 3.83 13.419 9.117 17.433 15.858 4.014 6.716 6.021 14.429 6.021 23.139 0 3.484-0.299 6.781-0.897 9.89l-25.737 0c1.097-2.929 1.645-6.16 1.646-9.693zM205.473 193.548h-24.792l0-54.672 75.591 0c-6.439 2.055-13.836 3.082-22.19 3.082l-28.609 0zM394.52 173.675v19.873h-70.125v-19.873l6.926 0 0 19.873h-24.792l0-54.672h24.792v34.799zM306.529 53.652h24.792v54.672l-24.792 0z" fill="#31c48d" fill-rule="nonzero" stroke="none" stroke-width="1" stroke-linecap="butt" stroke-linejoin="miter" stroke-miterlimit="10" stroke-dasharray="" stroke-dashoffset="0" font-family="none" font-weight="none" font-size="none" text-anchor="none" style="mix-blend-mode: normal" data-fill-palette-color="tertiary"></path></g></g><g transform="matrix(1,0,0,1,0,111.77528494024516)"><svg viewBox="0 0 395.52 23.649430119509663" height="23.649430119509663" width="395.52"><g><svg viewBox="0 0 395.52 23.649430119509663" height="23.649430119509663" width="395.52"><g><svg viewBox="0 0 395.52 23.649430119509663" height="23.649430119509663" width="395.52"><g><svg viewBox="0 0 395.52 23.649430119509663" height="23.649430119509663" width="395.52"><g id="textblocktransform"><svg viewBox="0 0 395.52 23.649430119509663" height="23.649430119509663" width="395.52" id="textblock"><g><svg viewBox="0 0 395.52 23.649430119509663" height="23.649430119509663" width="395.52"><g transform="matrix(1,0,0,1,0,0)"><svg width="395.52" viewBox="3.559999942779541 -37.5 635.260009765625 37.9900016784668" height="23.649430119509663" data-palette-color="#31c48d"><path d="M3.56-35.55L16.19-35.55Q20.26-35.55 23.14-34.33 26.03-33.11 27.55-30.71 29.08-28.32 29.08-24.83L29.08-24.83Q29.08-22.14 28.1-20.12 27.12-18.09 25.33-16.71 23.54-15.33 21.09-14.58L21.09-14.58 19.19-13.6 7.93-13.6 7.89-18.65 16.24-18.65Q18.41-18.65 19.86-19.41 21.31-20.17 22.03-21.48 22.75-22.8 22.75-24.49L22.75-24.49Q22.75-27.22 21.18-28.85 19.6-30.47 16.19-30.47L16.19-30.47 9.86-30.47 9.86 0 3.56 0 3.56-35.55ZM23.75 0L15.45-15.94 22.07-15.97 30.49-0.32 30.49 0 23.75 0ZM46.14 0.49L46.14 0.49Q42.21 0.49 39.35-1.21 36.5-2.91 34.96-5.8 33.42-8.69 33.42-12.28L33.42-12.28 33.42-13.28Q33.42-17.41 34.98-20.47 36.55-23.54 39.27-25.22 41.99-26.9 45.43-26.9L45.43-26.9Q49.24-26.9 51.76-25.26 54.27-23.61 55.52-20.69 56.76-17.77 56.76-13.94L56.76-13.94 56.76-11.33 36.33-11.33 36.33-15.7 50.78-15.7 50.78-16.16Q50.73-17.7 50.19-19.04 49.66-20.39 48.5-21.22 47.34-22.05 45.41-22.05L45.41-22.05Q43.48-22.05 42.16-20.96 40.84-19.87 40.16-17.91 39.48-15.94 39.48-13.28L39.48-13.28 39.48-12.28Q39.48-10.03 40.31-8.25 41.14-6.47 42.72-5.43 44.31-4.39 46.51-4.39L46.51-4.39Q48.63-4.39 50.28-5.22 51.93-6.05 53.12-7.62L53.12-7.62 56.3-4.44Q55.05-2.56 52.55-1.04 50.05 0.49 46.14 0.49ZM67.33-21.02L67.33 0 61.25 0 61.25-26.42 66.96-26.42 67.33-21.02ZM66.35-14.16L64.28-14.14Q64.28-17.82 65.46-20.7 66.65-23.58 68.99-25.24 71.33-26.9 74.82-26.9L74.82-26.9Q78.41-26.9 80.73-24.73 83.05-22.56 83.05-17.6L83.05-17.6 83.05 0 77 0 77-17.04Q77-18.9 76.42-19.97 75.85-21.04 74.81-21.5 73.77-21.95 72.33-21.95L72.33-21.95Q70.7-21.95 69.56-21.35 68.43-20.75 67.72-19.68 67.01-18.6 66.68-17.19 66.35-15.77 66.35-14.16L66.35-14.16ZM82.66-15.58L79.83-14.99Q79.85-18.24 81.03-20.95 82.2-23.66 84.49-25.28 86.79-26.9 90.16-26.9L90.16-26.9Q92.84-26.9 94.77-25.92 96.7-24.93 97.75-22.77 98.8-20.61 98.8-17.04L98.8-17.04 98.8 0 92.72 0 92.72-17.09Q92.72-19.02 92.15-20.08 91.57-21.14 90.53-21.55 89.5-21.95 88.08-21.95L88.08-21.95Q86.74-21.95 85.72-21.46 84.71-20.97 84.04-20.1 83.37-19.24 83.02-18.08 82.66-16.92 82.66-15.58L82.66-15.58ZM111.22-26.42L111.22 0 105.17 0 105.17-26.42 111.22-26.42ZM104.78-33.33L104.78-33.33Q104.78-34.72 105.68-35.63 106.58-36.55 108.2-36.55L108.2-36.55Q109.81-36.55 110.73-35.63 111.66-34.72 111.66-33.33L111.66-33.33Q111.66-31.96 110.73-31.04 109.81-30.13 108.2-30.13L108.2-30.13Q106.58-30.13 105.68-31.04 104.78-31.96 104.78-33.33ZM123.57-20.78L123.57 0 117.52 0 117.52-26.42 123.21-26.42 123.57-20.78ZM122.5-14.16L120.55-14.14Q120.57-17.97 121.89-20.84 123.21-23.71 125.58-25.31 127.94-26.9 131.09-26.9L131.09-26.9Q133.66-26.9 135.54-25.94 137.42-24.98 138.47-22.81 139.52-20.65 139.52-17.02L139.52-17.02 139.52 0 133.44 0 133.44-17.07Q133.44-18.9 132.91-19.97 132.39-21.04 131.35-21.5 130.31-21.95 128.82-21.95L128.82-21.95Q127.31-21.95 126.15-21.35 124.99-20.75 124.17-19.68 123.35-18.6 122.93-17.19 122.5-15.77 122.5-14.16L122.5-14.16ZM157.14 0.49L157.14 0.49Q153.21 0.49 150.35-1.21 147.5-2.91 145.96-5.8 144.42-8.69 144.42-12.28L144.42-12.28 144.42-13.28Q144.42-17.41 145.98-20.47 147.55-23.54 150.27-25.22 152.99-26.9 156.43-26.9L156.43-26.9Q160.24-26.9 162.76-25.26 165.27-23.61 166.52-20.69 167.76-17.77 167.76-13.94L167.76-13.94 167.76-11.33 147.33-11.33 147.33-15.7 161.78-15.7 161.78-16.16Q161.73-17.7 161.19-19.04 160.66-20.39 159.5-21.22 158.34-22.05 156.41-22.05L156.41-22.05Q154.48-22.05 153.16-20.96 151.84-19.87 151.16-17.91 150.48-15.94 150.48-13.28L150.48-13.28 150.48-12.28Q150.48-10.03 151.31-8.25 152.14-6.47 153.72-5.43 155.31-4.39 157.51-4.39L157.51-4.39Q159.63-4.39 161.28-5.22 162.93-6.05 164.12-7.62L164.12-7.62 167.3-4.44Q166.05-2.56 163.55-1.04 161.05 0.49 157.14 0.49ZM191.95-35.55L191.95 0 185.68 0 185.68-35.55 191.95-35.55ZM204.89-20.78L204.89 0 198.83 0 198.83-26.42 204.52-26.42 204.89-20.78ZM203.81-14.16L201.86-14.14Q201.88-17.97 203.2-20.84 204.52-23.71 206.89-25.31 209.26-26.9 212.41-26.9L212.41-26.9Q214.97-26.9 216.85-25.94 218.73-24.98 219.78-22.81 220.83-20.65 220.83-17.02L220.83-17.02 220.83 0 214.75 0 214.75-17.07Q214.75-18.9 214.23-19.97 213.7-21.04 212.66-21.5 211.63-21.95 210.14-21.95L210.14-21.95Q208.62-21.95 207.46-21.35 206.3-20.75 205.49-19.68 204.67-18.6 204.24-17.19 203.81-15.77 203.81-14.16L203.81-14.16ZM242.8-5.54L242.8-37.5 248.85-37.5 248.85 0 243.36 0 242.8-5.54ZM225.66-12.92L225.66-13.43Q225.66-17.43 226.92-20.47 228.18-23.51 230.5-25.21 232.81-26.9 236.06-26.9L236.06-26.9Q239.26-26.9 241.41-25.24 243.56-23.58 244.79-20.64 246.02-17.7 246.44-13.82L246.44-13.82 246.44-12.4Q246.02-8.64 244.8-5.74 243.58-2.83 241.42-1.17 239.26 0.49 236.01 0.49L236.01 0.49Q232.81 0.49 230.5-1.26 228.18-3 226.92-6.03 225.66-9.06 225.66-12.92L225.66-12.92ZM231.72-13.43L231.72-12.92Q231.72-10.57 232.3-8.65 232.89-6.74 234.17-5.6 235.45-4.47 237.55-4.47L237.55-4.47Q239.53-4.47 240.81-5.33 242.09-6.2 242.81-7.69 243.53-9.18 243.8-11.04L243.8-11.04 243.8-15.16Q243.63-16.63 243.19-17.87 242.75-19.12 242.01-20.02 241.26-20.92 240.16-21.44 239.06-21.95 237.6-21.95L237.6-21.95Q235.5-21.95 234.19-20.81 232.89-19.68 232.3-17.74 231.72-15.8 231.72-13.43L231.72-13.43ZM261.43-26.42L261.43 0 255.37 0 255.37-26.42 261.43-26.42ZM254.98-33.33L254.98-33.33Q254.98-34.72 255.88-35.63 256.79-36.55 258.4-36.55L258.4-36.55Q260.01-36.55 260.94-35.63 261.86-34.72 261.86-33.33L261.86-33.33Q261.86-31.96 260.94-31.04 260.01-30.13 258.4-30.13L258.4-30.13Q256.79-30.13 255.88-31.04 254.98-31.96 254.98-33.33ZM282.61-5.42L282.61-17.85Q282.61-19.9 281.48-21.12 280.34-22.34 278.05-22.34L278.05-22.34Q276.68-22.34 275.66-21.86 274.63-21.39 274.07-20.58 273.51-19.78 273.51-18.75L273.51-18.75 267.45-18.75Q267.45-20.87 268.8-22.74 270.14-24.61 272.59-25.76 275.05-26.9 278.39-26.9L278.39-26.9Q281.37-26.9 283.69-25.9 286.01-24.9 287.34-22.88 288.67-20.85 288.67-17.8L288.67-17.8 288.67-6.15Q288.67-4.3 288.94-2.88 289.21-1.46 289.69-0.42L289.69-0.42 289.69 0 283.49 0Q283.08-0.95 282.85-2.47 282.61-3.98 282.61-5.42L282.61-5.42ZM283.49-16.09L283.54-12.35 279.39-12.35Q276.17-12.35 274.55-11.17 272.92-9.99 272.92-7.96L272.92-7.96Q272.92-6.4 274-5.36 275.07-4.32 277.02-4.32L277.02-4.32Q278.81-4.32 280.14-5.04 281.47-5.76 282.22-6.82 282.98-7.89 283-8.81L283-8.81 284.93-6.1Q284.64-5.1 283.94-3.97 283.25-2.83 282.11-1.82 280.98-0.81 279.43-0.16 277.88 0.49 275.83 0.49L275.83 0.49Q273.24 0.49 271.21-0.54 269.19-1.56 268.03-3.36 266.87-5.15 266.87-7.4L266.87-7.4Q266.87-11.6 270.02-13.84 273.17-16.09 278.95-16.09L278.95-16.09 283.49-16.09ZM321.33-13.11L312.15-13.11 312.15-18.19 321.33-18.19Q323.72-18.19 325.18-18.95 326.63-19.7 327.31-21.04 327.99-22.39 327.99-24.12L327.99-24.12Q327.99-25.78 327.31-27.22 326.63-28.66 325.18-29.57 323.72-30.47 321.33-30.47L321.33-30.47 314.05-30.47 314.05 0 307.76 0 307.76-35.55 321.33-35.55Q325.48-35.55 328.39-34.08 331.29-32.62 332.82-30.05 334.34-27.49 334.34-24.17L334.34-24.17Q334.34-20.73 332.82-18.25 331.29-15.77 328.39-14.44 325.48-13.11 321.33-13.11L321.33-13.11ZM345.23-21.24L345.23 0 339.17 0 339.17-26.42 344.94-26.42 345.23-21.24ZM353.24-26.59L353.19-20.85Q352.63-20.95 352-21 351.38-21.04 350.77-21.04L350.77-21.04Q348.77-21.04 347.44-20.32 346.11-19.6 345.42-18.27 344.74-16.94 344.62-15.14L344.62-15.14 343.23-15.11Q343.23-18.46 344.11-21.12 344.98-23.78 346.74-25.34 348.5-26.9 351.14-26.9L351.14-26.9Q351.65-26.9 352.28-26.81 352.92-26.71 353.24-26.59L353.24-26.59ZM363.34-26.42L363.34 0 357.29 0 357.29-26.42 363.34-26.42ZM356.9-33.33L356.9-33.33Q356.9-34.72 357.8-35.63 358.7-36.55 360.31-36.55L360.31-36.55Q361.93-36.55 362.85-35.63 363.78-34.72 363.78-33.33L363.78-33.33Q363.78-31.96 362.85-31.04 361.93-30.13 360.31-30.13L360.31-30.13Q358.7-30.13 357.8-31.04 356.9-31.96 356.9-33.33ZM378.3-4.79L384.68-26.42 390.95-26.42 381.82 0 377.91 0 378.3-4.79ZM373.52-26.42L380.01-4.71 380.31 0 376.42 0 367.22-26.42 373.52-26.42ZM408.99-5.42L408.99-17.85Q408.99-19.9 407.86-21.12 406.72-22.34 404.43-22.34L404.43-22.34Q403.06-22.34 402.03-21.86 401.01-21.39 400.45-20.58 399.88-19.78 399.88-18.75L399.88-18.75 393.83-18.75Q393.83-20.87 395.17-22.74 396.52-24.61 398.97-25.76 401.42-26.9 404.77-26.9L404.77-26.9Q407.75-26.9 410.06-25.9 412.38-24.9 413.71-22.88 415.05-20.85 415.05-17.8L415.05-17.8 415.05-6.15Q415.05-4.3 415.31-2.88 415.58-1.46 416.07-0.42L416.07-0.42 416.07 0 409.87 0Q409.45-0.95 409.22-2.47 408.99-3.98 408.99-5.42L408.99-5.42ZM409.87-16.09L409.92-12.35 405.77-12.35Q402.55-12.35 400.92-11.17 399.3-9.99 399.3-7.96L399.3-7.96Q399.3-6.4 400.37-5.36 401.45-4.32 403.4-4.32L403.4-4.32Q405.18-4.32 406.51-5.04 407.84-5.76 408.6-6.82 409.36-7.89 409.38-8.81L409.38-8.81 411.31-6.1Q411.02-5.1 410.32-3.97 409.63-2.83 408.49-1.82 407.35-0.81 405.8-0.16 404.25 0.49 402.2 0.49L402.2 0.49Q399.62 0.49 397.59-0.54 395.56-1.56 394.4-3.36 393.24-5.15 393.24-7.4L393.24-7.4Q393.24-11.6 396.39-13.84 399.54-16.09 405.33-16.09L405.33-16.09 409.87-16.09ZM433.38-26.42L433.38-21.95 418.39-21.95 418.39-26.42 433.38-26.42ZM422.64-32.89L428.69-32.89 428.69-7.45Q428.69-6.23 429.03-5.6 429.37-4.98 430.01-4.76 430.64-4.54 431.47-4.54L431.47-4.54Q432.08-4.54 432.65-4.61 433.21-4.69 433.55-4.76L433.55-4.76 433.55-0.1Q432.82 0.15 431.85 0.32 430.89 0.49 429.59 0.49L429.59 0.49Q427.57 0.49 425.99-0.24 424.42-0.98 423.53-2.62 422.64-4.27 422.64-7.01L422.64-7.01 422.64-32.89ZM449.51 0.49L449.51 0.49Q445.58 0.49 442.73-1.21 439.87-2.91 438.33-5.8 436.79-8.69 436.79-12.28L436.79-12.28 436.79-13.28Q436.79-17.41 438.36-20.47 439.92-23.54 442.64-25.22 445.36-26.9 448.81-26.9L448.81-26.9Q452.61-26.9 455.13-25.26 457.64-23.61 458.89-20.69 460.13-17.77 460.13-13.94L460.13-13.94 460.13-11.33 439.7-11.33 439.7-15.7 454.15-15.7 454.15-16.16Q454.1-17.7 453.57-19.04 453.03-20.39 451.87-21.22 450.71-22.05 448.78-22.05L448.78-22.05Q446.85-22.05 445.53-20.96 444.22-19.87 443.53-17.91 442.85-15.94 442.85-13.28L442.85-13.28 442.85-12.28Q442.85-10.03 443.68-8.25 444.51-6.47 446.1-5.43 447.68-4.39 449.88-4.39L449.88-4.39Q452-4.39 453.65-5.22 455.3-6.05 456.5-7.62L456.5-7.62 459.67-4.44Q458.42-2.56 455.92-1.04 453.42 0.49 449.51 0.49ZM500-5.05L500 0 482.17 0 482.17-5.05 500-5.05ZM483.93-35.55L483.93 0 477.63 0 477.63-35.55 483.93-35.55ZM510.54-26.42L510.54 0 504.49 0 504.49-26.42 510.54-26.42ZM504.1-33.33L504.1-33.33Q504.1-34.72 505-35.63 505.9-36.55 507.51-36.55L507.51-36.55Q509.12-36.55 510.05-35.63 510.98-34.72 510.98-33.33L510.98-33.33Q510.98-31.96 510.05-31.04 509.12-30.13 507.51-30.13L507.51-30.13Q505.9-30.13 505-31.04 504.1-31.96 504.1-33.33ZM522.96-21.02L522.96 0 516.89 0 516.89-26.42 522.6-26.42 522.96-21.02ZM521.99-14.16L519.91-14.14Q519.91-17.82 521.1-20.7 522.28-23.58 524.63-25.24 526.97-26.9 530.46-26.9L530.46-26.9Q534.05-26.9 536.37-24.73 538.69-22.56 538.69-17.6L538.69-17.6 538.69 0 532.63 0 532.63-17.04Q532.63-18.9 532.06-19.97 531.49-21.04 530.45-21.5 529.41-21.95 527.97-21.95L527.97-21.95Q526.33-21.95 525.2-21.35 524.06-20.75 523.36-19.68 522.65-18.6 522.32-17.19 521.99-15.77 521.99-14.16L521.99-14.16ZM538.3-15.58L535.46-14.99Q535.49-18.24 536.66-20.95 537.83-23.66 540.13-25.28 542.42-26.9 545.79-26.9L545.79-26.9Q548.48-26.9 550.41-25.92 552.34-24.93 553.38-22.77 554.43-20.61 554.43-17.04L554.43-17.04 554.43 0 548.36 0 548.36-17.09Q548.36-19.02 547.78-20.08 547.21-21.14 546.17-21.55 545.13-21.95 543.72-21.95L543.72-21.95Q542.37-21.95 541.36-21.46 540.35-20.97 539.68-20.1 539-19.24 538.65-18.08 538.3-16.92 538.3-15.58L538.3-15.58ZM566.86-26.42L566.86 0 560.8 0 560.8-26.42 566.86-26.42ZM560.41-33.33L560.41-33.33Q560.41-34.72 561.32-35.63 562.22-36.55 563.83-36.55L563.83-36.55Q565.44-36.55 566.37-35.63 567.3-34.72 567.3-33.33L567.3-33.33Q567.3-31.96 566.37-31.04 565.44-30.13 563.83-30.13L563.83-30.13Q562.22-30.13 561.32-31.04 560.41-31.96 560.41-33.33ZM585.46-26.42L585.46-21.95 570.47-21.95 570.47-26.42 585.46-26.42ZM574.72-32.89L580.77-32.89 580.77-7.45Q580.77-6.23 581.11-5.6 581.46-4.98 582.09-4.76 582.73-4.54 583.56-4.54L583.56-4.54Q584.17-4.54 584.73-4.61 585.29-4.69 585.63-4.76L585.63-4.76 585.63-0.1Q584.9 0.15 583.93 0.32 582.97 0.49 581.68 0.49L581.68 0.49Q579.65 0.49 578.07-0.24 576.5-0.98 575.61-2.62 574.72-4.27 574.72-7.01L574.72-7.01 574.72-32.89ZM601.6 0.49L601.6 0.49Q597.66 0.49 594.81-1.21 591.95-2.91 590.41-5.8 588.88-8.69 588.88-12.28L588.88-12.28 588.88-13.28Q588.88-17.41 590.44-20.47 592-23.54 594.72-25.22 597.44-26.9 600.89-26.9L600.89-26.9Q604.7-26.9 607.21-25.26 609.73-23.61 610.97-20.69 612.22-17.77 612.22-13.94L612.22-13.94 612.22-11.33 591.78-11.33 591.78-15.7 606.23-15.7 606.23-16.16Q606.18-17.7 605.65-19.04 605.11-20.39 603.95-21.22 602.79-22.05 600.86-22.05L600.86-22.05Q598.93-22.05 597.62-20.96 596.3-19.87 595.61-17.91 594.93-15.94 594.93-13.28L594.93-13.28 594.93-12.28Q594.93-10.03 595.76-8.25 596.59-6.47 598.18-5.43 599.76-4.39 601.96-4.39L601.96-4.39Q604.09-4.39 605.73-5.22 607.38-6.05 608.58-7.62L608.58-7.62 611.75-4.44Q610.51-2.56 608-1.04 605.5 0.49 601.6 0.49ZM632.77-5.54L632.77-37.5 638.82-37.5 638.82 0 633.33 0 632.77-5.54ZM615.63-12.92L615.63-13.43Q615.63-17.43 616.89-20.47 618.15-23.51 620.46-25.21 622.78-26.9 626.03-26.9L626.03-26.9Q629.23-26.9 631.38-25.24 633.53-23.58 634.76-20.64 635.99-17.7 636.41-13.82L636.41-13.82 636.41-12.4Q635.99-8.64 634.77-5.74 633.55-2.83 631.39-1.17 629.23 0.49 625.98 0.49L625.98 0.49Q622.78 0.49 620.46-1.26 618.15-3 616.89-6.03 615.63-9.06 615.63-12.92L615.63-12.92ZM621.69-13.43L621.69-12.92Q621.69-10.57 622.27-8.65 622.86-6.74 624.14-5.6 625.42-4.47 627.52-4.47L627.52-4.47Q629.5-4.47 630.78-5.33 632.06-6.2 632.78-7.69 633.5-9.18 633.77-11.04L633.77-11.04 633.77-15.16Q633.6-16.63 633.16-17.87 632.72-19.12 631.98-20.02 631.23-20.92 630.13-21.44 629.03-21.95 627.57-21.95L627.57-21.95Q625.47-21.95 624.16-20.81 622.86-19.68 622.27-17.74 621.69-15.8 621.69-13.43L621.69-13.43Z" opacity="1" transform="matrix(1,0,0,1,0,0)" fill="#31c48d" class="undefined-text-0" data-fill-palette-color="primary" id="text-0"></path></svg></g></svg></g></svg></g></svg></g></svg></g></svg></g></svg></g></svg></g><defs></defs></svg><rect width="395.52" height="247.2" fill="none" stroke="none" visibility="hidden"></rect></g></svg></g></svg>